<?xml version="1.0" encoding="UTF-8" standalone="no"?>
<!-- Created with Inkscape (http://www.inkscape.org/) -->

<svg
   xmlns:dc="http://purl.org/dc/elements/1.1/"
   xmlns:cc="http://creativecommons.org/ns#"
   xmlns:rdf="http://www.w3.org/1999/02/22-rdf-syntax-ns#"
   xmlns:svg="http://www.w3.org/2000/svg"
   xmlns="http://www.w3.org/2000/svg"
   xmlns:xlink="http://www.w3.org/1999/xlink"
   xmlns:sodipodi="http://sodipodi.sourceforge.net/DTD/sodipodi-0.dtd"
   xmlns:inkscape="http://www.inkscape.org/namespaces/inkscape"
   width="210mm"
   height="297mm"
   viewBox="0 0 210 297"
   version="1.1"
   id="svg7161"
   inkscape:version="0.92.3 (2405546, 2018-03-11)"
   sodipodi:docname="sphere.svg">
  <defs
     id="defs7155">
    <linearGradient
       inkscape:collect="always"
       id="linearGradient7813">
      <stop
         style="stop-color:#000000;stop-opacity:1;"
         offset="0"
         id="stop7809" />
      <stop
         style="stop-color:#000000;stop-opacity:0;"
         offset="1"
         id="stop7811" />
    </linearGradient>
    <linearGradient
       inkscape:collect="always"
       id="linearGradient7801">
      <stop
         style="stop-color:#d1d1d1;stop-opacity:1"
         offset="0"
         id="stop7797" />
      <stop
         id="stop7805"
         offset="0.48240092"
         style="stop-color:#1a1a1a;stop-opacity:1" />
      <stop
         style="stop-color:#ffffff;stop-opacity:1"
         offset="1"
         id="stop7799" />
    </linearGradient>
    <linearGradient
       inkscape:collect="always"
       id="linearGradient7773">
      <stop
         style="stop-color:#93e0f4;stop-opacity:1;"
         offset="0"
         id="stop7769" />
      <stop
         id="stop7777"
         offset="0.5091334"
         style="stop-color:#05242c;stop-opacity:1" />
      <stop
         style="stop-color:#93e0f4;stop-opacity:1"
         offset="1"
         id="stop7771" />
    </linearGradient>
    <linearGradient
       inkscape:collect="always"
       id="linearGradient7753">
      <stop
         style="stop-color:#ededed;stop-opacity:1"
         offset="0"
         id="stop7749" />
      <stop
         id="stop7757"
         offset="0.49755955"
         style="stop-color:#00ccff;stop-opacity:1;" />
      <stop
         style="stop-color:#001940;stop-opacity:1"
         offset="1"
         id="stop7751" />
    </linearGradient>
    <linearGradient
       inkscape:collect="always"
       id="linearGradient7741">
      <stop
         style="stop-color:#ffffff;stop-opacity:1"
         offset="0"
         id="stop7737" />
      <stop
         id="stop7747"
         offset="0.31137636"
         style="stop-color:#d3d3d3;stop-opacity:1" />
      <stop
         id="stop7745"
         offset="0.64561367"
         style="stop-color:#565656;stop-opacity:1" />
      <stop
         style="stop-color:#000000;stop-opacity:1"
         offset="1"
         id="stop7739" />
    </linearGradient>
    <radialGradient
       inkscape:collect="always"
       xlink:href="#linearGradient7741"
       id="radialGradient7743"
       cx="384.5"
       cy="482.96863"
       fx="384.5"
       fy="482.96863"
       r="164.5"
       gradientTransform="matrix(0.28425378,0.07949587,-0.07234344,0.25867882,29.621417,-27.565963)"
       gradientUnits="userSpaceOnUse" />
    <radialGradient
       inkscape:collect="always"
       xlink:href="#linearGradient7753"
       id="radialGradient7755"
       cx="97.196075"
       cy="127.94775"
       fx="97.70752"
       fy="127.66256"
       r="26.19375"
       gradientTransform="matrix(0.88888899,1.660019e-7,-1.7187066e-7,0.9203144,43.974673,-19.236711)"
       gradientUnits="userSpaceOnUse" />
    <linearGradient
       inkscape:collect="always"
       xlink:href="#linearGradient7773"
       id="linearGradient7775"
       x1="69.936615"
       y1="131.67526"
       x2="135.69742"
       y2="131.67526"
       gradientUnits="userSpaceOnUse"
       gradientTransform="rotate(-30,104.53681,135.60413)" />
    <linearGradient
       inkscape:collect="always"
       xlink:href="#linearGradient7801"
       id="linearGradient7803"
       x1="250.2168"
       y1="497.66993"
       x2="539.98242"
       y2="497.66993"
       gradientUnits="userSpaceOnUse"
       gradientTransform="matrix(0.22913589,-0.13229166,0.13229166,0.22913589,-53.796786,70.435912)" />
    <linearGradient
       inkscape:collect="always"
       xlink:href="#linearGradient7813"
       id="linearGradient7815"
       x1="99.861191"
       y1="167.74234"
       x2="100.43054"
       y2="189.17358"
       gradientUnits="userSpaceOnUse" />
  </defs>
  <sodipodi:namedview
     id="base"
     pagecolor="#ffffff"
     bordercolor="#666666"
     borderopacity="1.0"
     inkscape:pageopacity="0.0"
     inkscape:pageshadow="2"
     inkscape:zoom="1"
     inkscape:cx="396.85039"
     inkscape:cy="561.25984"
     inkscape:document-units="mm"
     inkscape:current-layer="layer1"
     showgrid="false"
     showborder="false"
     inkscape:object-nodes="true"
     inkscape:window-width="1920"
     inkscape:window-height="1017"
     inkscape:window-x="1272"
     inkscape:window-y="-8"
     inkscape:window-maximized="1">
    <inkscape:grid
       type="xygrid"
       id="grid7706" />
  </sodipodi:namedview>
  <metadata
     id="metadata7158">
    <rdf:RDF>
      <cc:Work
         rdf:about="">
        <dc:format>image/svg+xml</dc:format>
        <dc:type
           rdf:resource="http://purl.org/dc/dcmitype/StillImage" />
        <dc:title></dc:title>
      </cc:Work>
    </rdf:RDF>
  </metadata>
  <g
     inkscape:label="Layer 1"
     inkscape:groupmode="layer"
     id="layer1">
    <ellipse
       style="opacity:1;fill:url(#radialGradient7755);fill-opacity:1;stroke:none;stroke-width:1.89404309;stroke-miterlimit:4;stroke-dasharray:none"
       id="path7733"
       cx="134.86909"
       cy="104.60088"
       rx="26.19375"
       ry="27.119791"
       transform="rotate(15)" />
    <path
       inkscape:connector-curvature="0"
       id="path7779"
       d="m 111.38724,111.47801 a 24.313011,26.074235 53.777389 0 0 -31.779122,18.64735 24.313011,26.074235 53.777389 0 0 -0.816948,10.79945 9.9660877,20.848816 73.470291 0 1 7.95456,-3.18176 9.9660877,20.848816 73.470291 0 1 16.18732,-0.93779 9.9660877,20.848816 73.470291 0 1 6.26691,4.88742 9.9660877,20.848816 73.470291 0 1 -17.63123,15.40543 9.9660877,20.848816 73.470291 0 1 -1.513345,0.40105 24.313011,26.074235 53.777389 0 0 6.518657,2.56778 24.313011,26.074235 53.777389 0 0 31.779128,-18.64737 24.313011,26.074235 53.777389 0 0 -0.0603,-14.58225 9.9660877,20.848816 73.470291 0 1 -8.94585,3.72809 9.9660877,20.848816 73.470291 0 1 -22.454241,-3.94964 9.9660877,20.848816 73.470291 0 1 15.682861,-14.79794 24.313011,26.074235 53.777389 0 0 -1.18835,-0.33982 z"
       style="opacity:0.38500001;fill:#000000;fill-opacity:1;stroke:none;stroke-width:1.08789921;stroke-miterlimit:4;stroke-dasharray:none" />
    <path
       style="opacity:1;fill:url(#linearGradient7775);fill-opacity:1;stroke:none;stroke-width:1.17069399;stroke-miterlimit:4;stroke-dasharray:none"
       d="m 117.20112,94.064059 -30.176075,7.688101 -3.784706,15.14698 1.151067,0.38226 a 26.890853,27.299531 15 0 0 -6.654013,11.83907 26.890853,27.299531 15 0 0 -0.463709,2.17783 l -10.893625,3.54432 -5.552139,9.07255 16.388807,-2.99422 a 11.05142,21.771958 75 0 1 8.317153,-3.23103 11.05142,21.771958 75 0 1 17.10228,-0.51167 11.05142,21.771958 75 0 1 6.78828,5.55156 11.05142,21.771958 75 0 1 -18.170287,16.30955 11.05142,21.771958 75 0 1 -1.58876,0.3907 l -8.688149,14.443 12.896331,1.48036 10.606725,-4.82761 6.39903,-6.50288 0.43832,-1.87541 a 26.890853,27.299531 15 0 0 18.36891,-19.10731 26.890853,27.299531 15 0 0 -0.52807,-15.97089 11.05142,21.771958 75 0 1 -9.34904,3.79769 11.05142,21.771958 75 0 1 -23.890583,-5.0399 11.05142,21.771958 75 0 1 16.127083,-15.70626 26.890853,27.299531 15 0 0 -1.26832,-0.40992 z m 11.95737,33.005261 2.92218,8.94272 5.26666,-0.2323 7.55105,-14.28438 z"
       id="path7718"
       inkscape:connector-curvature="0" />
    <path
       style="opacity:1;fill:url(#linearGradient7803);fill-opacity:1;stroke:none;stroke-width:1.7489512;stroke-miterlimit:4;stroke-dasharray:none"
       d="m 87.025209,101.75199 -3.785129,15.14703 1.151163,0.3826 a 26.890853,27.299531 15 0 0 -6.65405,11.8388 26.890853,27.299531 15 0 0 -0.463597,2.17772 l -10.893717,3.54463 -2.285109,3.73359 a 41.035941,39.926746 76.697245 0 0 0.534228,4.57264 16.673607,32.207319 75.570921 0 1 12.30812,-4.7318 16.673607,32.207319 75.570921 0 1 15.22648,-1.93841 11.05142,21.771958 75 0 1 10.472652,0.69939 11.05142,21.771958 75 0 1 5.92175,3.74038 16.673607,32.207319 75.570921 0 1 3.94242,5.42495 16.673607,32.207319 75.570921 0 1 -26.749634,24.2376 16.673607,32.207319 75.570921 0 1 -2.354734,0.5641 41.035941,39.926746 76.697245 0 0 8.367174,3.96588 l 2.110267,0.24237 10.606937,-4.82786 6.39879,-6.50246 0.43866,-1.87571 a 26.890853,27.299531 15 0 0 18.36888,-19.10717 26.890853,27.299531 15 0 0 -0.20776,-14.85921 16.673607,32.207319 75.570921 0 1 -1.72703,0.49169 16.673607,32.207319 75.570921 0 1 -3.86993,0.86665 11.05142,21.771958 75 0 1 -4.07286,1.32751 11.05142,21.771958 75 0 1 -23.79907,-4.77485 16.673607,32.207319 75.570921 0 1 -3.82215,-5.34581 16.673607,32.207319 75.570921 0 1 23.63752,-23.331702 l 0.0214,-0.05176 a 41.035941,39.926746 76.697245 0 0 -1.82456,-0.612596 41.035941,39.926746 76.697245 0 0 -3.90105,-0.882234 z m 42.493161,26.41767 2.56228,7.84244 5.26655,-0.23254 5.11738,-9.68001 a 41.035941,39.926746 76.697245 0 0 -0.88084,-2.99533 16.673607,32.207319 75.570921 0 1 -12.06537,5.06544 z"
       id="path7781"
       inkscape:connector-curvature="0" />
    <path
       style="opacity:1;fill:url(#radialGradient7743);fill-opacity:1;stroke:none;stroke-width:1.89481652;stroke-miterlimit:4;stroke-dasharray:none"
       d="m 115.148,93.40051 a 43.523955,44.185416 15 0 0 -53.476939,31.415 43.523955,44.185416 15 0 0 -0.843141,19.09966 17.88718,35.238811 75 0 1 13.462232,-5.22983 17.88718,35.238811 75 0 1 27.680508,-0.82835 17.88718,35.238811 75 0 1 10.98695,8.98562 17.88718,35.238811 75 0 1 -29.408662,26.39756 17.88718,35.238811 75 0 1 -2.571704,0.63289 43.523955,44.185416 15 0 0 11.298703,4.88712 43.523955,44.185416 15 0 0 53.476943,-31.41501 43.523955,44.185416 15 0 0 -0.85451,-25.84981 A 17.88718,35.238811 75 0 1 129.7662,127.6425 17.88718,35.238811 75 0 1 91.098738,119.48522 17.88718,35.238811 75 0 1 117.20112,94.064059 43.523955,44.185416 15 0 0 115.148,93.40051 Z"
       id="path7708"
       inkscape:connector-curvature="0" />
    <path
       inkscape:connector-curvature="0"
       id="path7807"
       d="m 115.148,267.04301 a 44.185416,43.523955 75 0 1 -53.476939,-31.415 44.185416,43.523955 75 0 1 -0.843141,-19.09966 35.238811,17.88718 15 0 0 13.462232,5.22983 35.238811,17.88718 15 0 0 27.680508,0.82835 35.238811,17.88718 15 0 0 10.98695,-8.98562 35.238811,17.88718 15 0 0 -29.408662,-26.39756 35.238811,17.88718 15 0 0 -2.571704,-0.63289 44.185416,43.523955 75 0 1 11.298703,-4.88712 44.185416,43.523955 75 0 1 53.476943,31.41501 44.185416,43.523955 75 0 1 -0.85451,25.84981 35.238811,17.88718 15 0 0 -15.13218,-6.14714 35.238811,17.88718 15 0 0 -38.667462,8.15728 35.238811,17.88718 15 0 0 26.102382,25.42116 44.185416,43.523955 75 0 1 -2.05312,0.66355 z"
       style="opacity:1;fill:url(#linearGradient7815);fill-opacity:1;stroke:none;stroke-width:1.89481652;stroke-miterlimit:4;stroke-dasharray:none" />
  </g>
</svg>
